# xmcd CD database file
#
# Track frame offsets:
#	150
#	20755
#	40653
#	63418
#	78318
#	102180
#	120445
#
# Disc length: 1905 seconds
#
# Revision: 1
# Processed by: cddbd v1.5.2PL0 Copyright (c) Steve Scherf et al.
# Submitted via: CDex 1.70beta2
#
DISCID=4e076f07
DTITLE=サノトモミ - サイレントフライト
DYEAR=2005
DGENRE=Pop
TTITLE0=six
TTITLE1=ラストサマー
TTITLE2=サイレントフライト
TTITLE3=ビオトープ
TTITLE4=追憶の鏡
TTITLE5=明星
TTITLE6=スィートバレイ
EXTD=YEAR: 2005
EXTT0=
EXTT1=
EXTT2=
EXTT3=
EXTT4=
EXTT5=
EXTT6=
PLAYORDER=
